<?xml version="1.0" standalone="no"?>
<!DOCTYPE svg PUBLIC "-//W3C//DTD SVG 20010904//EN"
 "http://www.w3.org/TR/2001/REC-SVG-20010904/DTD/svg10.dtd">
<svg version="1.0" xmlns="http://www.w3.org/2000/svg"
 width="200.000000pt" height="200.000000pt" viewBox="0 0 200.000000 200.000000"
 preserveAspectRatio="xMidYMid meet">

<g transform="translate(0.000000,200.000000) scale(0.100000,-0.100000)"
fill="#000000" stroke="none">
<path d="M790 1318 c0 -20 81 -222 93 -234 7 -6 76 -21 155 -33 121 -19 148
-21 180 -10 36 12 33 13 -146 49 -100 21 -184 39 -186 41 -2 2 -22 48 -46 102
-41 94 -50 110 -50 85z"/>
<path d="M763 1262 c4 -18 25 -91 47 -161 39 -124 42 -129 72 -135 53 -10 134
-7 169 8 l34 14 -35 6 c-19 3 -68 10 -108 15 -41 5 -76 12 -78 14 -3 2 -25 62
-50 133 -47 132 -62 164 -51 106z"/>
<path d="M740 1234 c1 -16 89 -336 94 -342 3 -3 16 0 28 6 l23 11 -22 0 c-24
1 -24 1 -89 231 -25 90 -34 115 -34 94z"/>
<path d="M1554 825 c-4 -9 -2 -21 4 -27 16 -16 47 -5 47 17 0 26 -42 34 -51
10z"/>
<path d="M160 700 l0 -110 85 0 c72 0 88 3 105 20 25 25 25 41 0 73 -13 16
-16 28 -10 32 17 10 12 67 -7 81 -11 8 -47 13 -95 14 l-78 0 0 -110z m138 48
c-2 -19 -10 -24 -45 -26 -40 -3 -43 -1 -43 22 0 24 3 26 46 26 41 0 45 -2 42
-22z m13 -84 c11 -14 10 -18 -6 -30 -10 -8 -36 -14 -57 -14 -36 0 -38 2 -38
30 0 29 2 30 44 30 28 0 48 -6 57 -16z"/>
<path d="M410 700 l0 -110 85 0 c78 0 85 2 85 20 0 18 -7 20 -60 20 -57 0 -60
1 -60 25 0 24 3 25 55 25 48 0 55 2 55 20 0 18 -7 20 -55 20 -52 0 -55 1 -55
25 0 24 3 25 60 25 53 0 60 2 60 20 0 18 -7 20 -85 20 l-85 0 0 -110z"/>
<path d="M750 700 l0 -110 25 0 c21 0 25 5 25 29 0 16 7 35 16 42 14 11 21 7
51 -29 26 -32 42 -42 64 -42 l29 0 -47 60 -46 60 42 50 c39 46 41 50 19 50
-14 0 -43 -20 -75 -52 l-53 -52 0 52 c0 49 -2 52 -25 52 l-25 0 0 -110z"/>
<path d="M1420 780 c0 -11 -7 -23 -15 -26 -8 -4 -15 -12 -15 -20 0 -8 7 -14
15 -14 12 0 15 -13 15 -55 0 -47 3 -57 25 -71 16 -10 34 -14 50 -10 32 8 32
24 0 36 -22 8 -25 16 -25 55 0 38 3 45 20 45 11 0 20 7 20 15 0 8 -9 15 -20
15 -15 0 -20 7 -20 25 0 20 -5 25 -25 25 -18 0 -25 -5 -25 -20z"/>
<path d="M998 749 c-32 -18 -10 -37 36 -32 32 4 44 1 49 -10 4 -11 -6 -16 -44
-21 -53 -7 -75 -30 -64 -67 8 -25 51 -42 85 -33 14 4 38 6 54 5 l28 -3 -4 67
c-3 56 -8 71 -27 86 -25 21 -85 25 -113 8z m92 -104 c0 -18 -34 -37 -54 -29
-16 6 -21 26 -9 37 13 14 63 7 63 -8z"/>
<path d="M1190 675 c0 -76 2 -85 19 -85 15 0 19 10 23 56 5 58 18 76 53 72 17
-3 20 -12 23 -65 3 -59 4 -63 27 -63 24 0 25 2 25 69 0 61 -3 72 -22 85 -26
18 -61 20 -89 6 -13 -7 -19 -7 -19 0 0 5 -9 10 -20 10 -18 0 -20 -7 -20 -85z"/>
<path d="M1550 675 c0 -84 0 -85 25 -85 25 0 25 1 25 85 0 84 0 85 -25 85 -25
0 -25 -1 -25 -85z"/>
<path d="M1650 675 c0 -84 0 -85 25 -85 23 0 25 3 25 48 0 62 18 87 53 78 25
-6 27 -10 27 -66 0 -57 1 -60 25 -60 24 0 25 2 25 65 0 52 -4 69 -20 85 -22
22 -79 27 -98 8 -9 -9 -12 -9 -12 0 0 7 -11 12 -25 12 -25 0 -25 -1 -25 -85z"/>
<path d="M617 693 c-20 -19 -5 -33 38 -33 38 0 45 3 45 20 0 17 -7 20 -38 20
-21 0 -42 -3 -45 -7z"/>
</g>
</svg>
